<svg width="24" height="24" viewBox="0 0 24 24" fill="none" xmlns="http://www.w3.org/2000/svg">
<path d="M20.9449 18.4292C20.9352 18.7743 20.8562 19.1139 20.7127 19.4279C20.5693 19.7418 20.3642 20.0238 20.1096 20.257C19.8551 20.4901 19.5563 20.6698 19.231 20.7853C18.9057 20.9008 18.5605 20.9497 18.2159 20.9292C16.0629 20.9412 13.9089 20.9292 11.7559 20.9292C11.6233 20.9292 11.4961 20.8765 11.4023 20.7828C11.3085 20.689 11.2559 20.5618 11.2559 20.4292C11.2559 20.2966 11.3085 20.1694 11.4023 20.0757C11.4961 19.9819 11.6233 19.9292 11.7559 19.9292C13.9559 19.9292 16.1559 19.9612 18.3559 19.9292C19.4629 19.9132 19.9449 19.0812 19.9449 18.0912V5.62722C19.9524 5.3125 19.8637 5.00299 19.6905 4.74009C19.5174 4.4772 19.268 4.27349 18.9759 4.15622C18.6307 4.06151 18.2714 4.02934 17.9149 4.06122H11.7559C11.6233 4.06122 11.4961 4.00854 11.4023 3.91477C11.3085 3.821 11.2559 3.69382 11.2559 3.56122C11.2559 3.42861 11.3085 3.30143 11.4023 3.20766C11.4961 3.11389 11.6233 3.06122 11.7559 3.06122C13.9809 3.06122 16.2209 2.97622 18.4439 3.06122C18.7842 3.06969 19.1194 3.14579 19.43 3.28509C19.7406 3.42439 20.0204 3.6241 20.2531 3.87259C20.4858 4.12109 20.6667 4.41339 20.7853 4.73249C20.9038 5.05158 20.9578 5.39108 20.9439 5.73122L20.9449 18.4292Z" fill="#2D96BC" stroke="#2D96BC"/>
<path d="M15.7942 12.3523C15.8785 12.2698 15.9279 12.1581 15.9322 12.0403L15.9382 11.9983L15.9322 11.9573C15.9281 11.8391 15.8787 11.727 15.7942 11.6443L12.1252 7.97629C12.0309 7.88521 11.9046 7.83482 11.7735 7.83596C11.6424 7.8371 11.517 7.88968 11.4243 7.98238C11.3316 8.07509 11.279 8.20049 11.2779 8.33159C11.2767 8.46269 11.3271 8.58899 11.4182 8.68329L14.2342 11.4983H3.49219C3.35958 11.4983 3.2324 11.551 3.13863 11.6447C3.04487 11.7385 2.99219 11.8657 2.99219 11.9983C2.99219 12.1309 3.04487 12.2581 3.13863 12.3518C3.2324 12.4456 3.35958 12.4983 3.49219 12.4983H14.2342L11.4182 15.3133C11.3271 15.4076 11.2767 15.5339 11.2779 15.665C11.279 15.7961 11.3316 15.9215 11.4243 16.0142C11.517 16.1069 11.6424 16.1595 11.7735 16.1606C11.9046 16.1618 12.0309 16.1114 12.1252 16.0203L15.7942 12.3523Z" fill="#2D96BC" stroke="#2D96BC"/>
</svg>
