<svg width="25" height="25" viewBox="0 0 25 25" fill="none" xmlns="http://www.w3.org/2000/svg">
<path d="M24.8047 10.8154L21.6309 8.71582V1.63574C21.6309 1.52181 21.5902 1.42415 21.5088 1.34277C21.4274 1.26139 21.3298 1.2207 21.2158 1.2207H3.78418C3.67025 1.2207 3.57259 1.26139 3.49121 1.34277C3.40983 1.42415 3.36914 1.52181 3.36914 1.63574V8.71582L0.195312 10.8154C0.130208 10.8643 0.0813802 10.9172 0.0488281 10.9741C0.016276 11.0311 0 11.0921 0 11.1572V23.999C0 24.113 0.0406901 24.2106 0.12207 24.292C0.203451 24.3734 0.301107 24.4141 0.415039 24.4141H24.585C24.6989 24.4141 24.7965 24.3734 24.8779 24.292C24.9593 24.2106 25 24.113 25 23.999V11.1572C25 11.0921 24.9837 11.0311 24.9512 10.9741C24.9186 10.9172 24.8698 10.8643 24.8047 10.8154ZM3.36914 12.2803L2.0752 11.5723H3.36914V12.2803ZM0.830078 11.8652L10.3516 16.9189L0.830078 23.2178V11.8652ZM12.5 16.4795L23.2178 23.584H1.78223L12.5 16.4795ZM14.6484 16.9189L24.1699 11.8652V23.2178L14.6484 16.9189ZM21.6309 11.5723H22.9248L21.6309 12.2803V11.5723ZM23.2178 10.7666H21.6309V9.69238L23.2178 10.7666ZM20.8008 2.05078V12.7197L13.8672 16.3818L12.7197 15.625C12.6546 15.5924 12.5814 15.5762 12.5 15.5762C12.4186 15.5762 12.3454 15.5924 12.2803 15.625L11.1328 16.3818L4.19922 12.7197V2.05078H20.8008ZM3.36914 10.7666H1.78223L3.36914 9.69238V10.7666ZM12.5 12.1094H15.7959C15.9098 12.1094 16.0075 12.0687 16.0889 11.9873C16.1702 11.9059 16.2109 11.8083 16.2109 11.6943C16.2109 11.5804 16.1702 11.4827 16.0889 11.4014C16.0075 11.32 15.9098 11.2793 15.7959 11.2793H12.5C11.7025 11.2793 11.0229 10.9985 10.4614 10.437C9.8999 9.87549 9.61914 9.19596 9.61914 8.39844V8.27637C9.61914 7.47884 9.8999 6.79932 10.4614 6.23779C11.0229 5.67627 11.7025 5.39551 12.5 5.39551C13.2975 5.39551 13.9771 5.67627 14.5386 6.23779C15.1001 6.79932 15.3809 7.47884 15.3809 8.27637V8.56934C15.3809 8.74837 15.3198 8.89893 15.1978 9.021C15.0757 9.14307 14.9333 9.2041 14.7705 9.2041C14.5915 9.2041 14.4409 9.14307 14.3188 9.021C14.1968 8.89893 14.1357 8.74837 14.1357 8.56934V8.00781C14.1357 7.50326 13.9608 7.07601 13.6108 6.72607C13.2609 6.37614 12.8418 6.20117 12.3535 6.20117C11.849 6.20117 11.4217 6.37614 11.0718 6.72607C10.7218 7.07601 10.5469 7.50326 10.5469 8.00781C10.5469 8.49609 10.7218 8.9152 11.0718 9.26514C11.4217 9.61507 11.849 9.79004 12.3535 9.79004C12.5814 9.79004 12.793 9.74935 12.9883 9.66797C13.1836 9.58659 13.3626 9.48079 13.5254 9.35059C13.6556 9.5459 13.8306 9.70866 14.0503 9.83887C14.27 9.96908 14.5101 10.0342 14.7705 10.0342C15.1611 10.0342 15.4989 9.89176 15.7837 9.60693C16.0685 9.3221 16.2109 8.97624 16.2109 8.56934V8.27637C16.2109 7.25098 15.8488 6.37614 15.1245 5.65186C14.4002 4.92757 13.5254 4.56543 12.5 4.56543C11.4746 4.56543 10.5998 4.92757 9.87549 5.65186C9.1512 6.37614 8.78906 7.25098 8.78906 8.27637V8.39844C8.78906 9.42383 9.1512 10.2987 9.87549 11.0229C10.5998 11.7472 11.4746 12.1094 12.5 12.1094ZM12.3535 8.95996C12.0768 8.95996 11.8449 8.86637 11.6577 8.6792C11.4705 8.49202 11.377 8.26823 11.377 8.00781C11.377 7.73112 11.4705 7.49919 11.6577 7.31201C11.8449 7.12484 12.0768 7.03125 12.3535 7.03125C12.6139 7.03125 12.8377 7.12484 13.0249 7.31201C13.2121 7.49919 13.3057 7.73112 13.3057 8.00781C13.3057 8.26823 13.2121 8.49202 13.0249 8.6792C12.8377 8.86637 12.6139 8.95996 12.3535 8.95996Z" fill="#01B2D8"/>
</svg>
