<svg width="25" height="26" viewBox="0 0 25 26" fill="none" xmlns="http://www.w3.org/2000/svg">
<path d="M19.7506 15.7949C19.4902 15.5345 19.2094 15.3351 18.9083 15.1968C18.6072 15.0584 18.2939 14.9893 17.9683 14.9893C17.6428 14.9893 17.3295 15.0584 17.0284 15.1968C16.7273 15.3351 16.4384 15.5345 16.1617 15.7949L14.5015 17.4551C14.4364 17.4225 14.3673 17.39 14.294 17.3574C14.2208 17.3249 14.1516 17.2842 14.0865 17.2354C14.0051 17.2028 13.9197 17.1621 13.8302 17.1133C13.7406 17.0645 13.6552 17.0156 13.5738 16.9668C12.7926 16.4785 12.0439 15.9048 11.3277 15.2456C10.6116 14.5864 9.91171 13.8418 9.22811 13.0117C8.90259 12.5885 8.6259 12.1979 8.39803 11.8398C8.17017 11.4818 7.97486 11.1237 7.8121 10.7656C8.02368 10.5703 8.2312 10.3709 8.43465 10.1675C8.63811 9.96403 8.83749 9.76465 9.0328 9.56934C9.0979 9.48796 9.17115 9.41064 9.25253 9.3374C9.33391 9.26416 9.40715 9.18685 9.47225 9.10547C10.0256 8.55208 10.3023 7.9458 10.3023 7.28662C10.3023 6.62744 10.0256 6.02116 9.47225 5.46777L8.03182 4.02734C7.95044 3.94596 7.86906 3.86051 7.78768 3.771C7.7063 3.68148 7.62492 3.59603 7.54354 3.51465C7.38078 3.35189 7.21802 3.18913 7.05526 3.02637C6.8925 2.86361 6.72974 2.70085 6.56698 2.53809C6.30656 2.27767 6.0258 2.08236 5.72469 1.95215C5.42359 1.82194 5.11027 1.75684 4.78475 1.75684C4.45923 1.75684 4.14592 1.82194 3.84481 1.95215C3.5437 2.08236 3.26294 2.27767 3.00253 2.53809C3.00253 2.53809 2.99439 2.53809 2.97811 2.53809L1.19588 4.36914C0.854088 4.69466 0.589602 5.06494 0.402428 5.47998C0.215253 5.89502 0.0972522 6.33854 0.048424 6.81055C-0.0166801 7.57552 0.036217 8.2998 0.207115 8.9834C0.378014 9.66699 0.552981 10.2448 0.732018 10.7168C1.15519 11.8724 1.69637 12.9995 2.35555 14.0981C3.01473 15.1968 3.81633 16.3158 4.76034 17.4551C5.34628 18.1549 5.95663 18.806 6.59139 19.4082C7.22616 20.0267 7.88941 20.6086 8.58114 21.1538C9.27287 21.6991 9.98495 22.1995 10.7174 22.6553C11.4661 23.1273 12.2392 23.5505 13.0367 23.9248C13.6389 24.2178 14.3347 24.5067 15.1241 24.7915C15.9135 25.0763 16.7639 25.2513 17.6754 25.3164C17.7242 25.3164 17.7771 25.3164 17.8341 25.3164C17.891 25.3164 17.9521 25.3164 18.0172 25.3164C18.6194 25.3164 19.1768 25.2065 19.6895 24.9868C20.2022 24.7671 20.6539 24.4375 21.0445 23.998C21.0608 23.998 21.0689 23.998 21.0689 23.998C21.0689 23.998 21.0689 23.9899 21.0689 23.9736C21.2154 23.8109 21.366 23.6522 21.5206 23.4976C21.6752 23.3429 21.8339 23.1842 21.9967 23.0215C22.1106 22.9238 22.2245 22.818 22.3385 22.7041C22.4524 22.5902 22.5663 22.4681 22.6803 22.3379C22.9407 22.0775 23.1401 21.7926 23.2784 21.4834C23.4168 21.1742 23.4859 20.8568 23.4859 20.5312C23.4859 20.2057 23.4168 19.8883 23.2784 19.5791C23.1401 19.2699 22.9325 18.9769 22.6558 18.7002L19.7506 15.7949ZM21.6549 21.3613C21.5409 21.4753 21.4311 21.5811 21.3253 21.6787C21.2195 21.7764 21.1096 21.8822 20.9957 21.9961C20.8329 22.1589 20.662 22.3298 20.483 22.5088C20.304 22.6878 20.1331 22.8669 19.9703 23.0459C19.7099 23.3389 19.4169 23.5545 19.0914 23.6929C18.7659 23.8312 18.3997 23.9004 17.9928 23.9004C17.9602 23.9004 17.9236 23.9004 17.8829 23.9004C17.8422 23.9004 17.7974 23.9004 17.7486 23.9004C16.9674 23.8353 16.2227 23.6766 15.5147 23.4243C14.8067 23.172 14.1842 22.9157 13.6471 22.6553C12.8984 22.2972 12.1741 21.8984 11.4742 21.459C10.7743 21.0195 10.0989 20.5475 9.44784 20.043C8.7968 19.5384 8.17017 18.9932 7.56796 18.4072C6.96574 17.8213 6.39608 17.2028 5.85897 16.5518C4.96379 15.4613 4.20695 14.4033 3.58846 13.3779C2.96997 12.3525 2.45728 11.3027 2.05038 10.2285C1.80624 9.57747 1.63941 8.9834 1.54989 8.44629C1.46037 7.90918 1.43189 7.40462 1.46444 6.93262C1.49699 6.62337 1.57023 6.33854 1.68417 6.07812C1.7981 5.81771 1.969 5.58171 2.19686 5.37012L3.97909 3.56348C4.1093 3.43327 4.24357 3.33968 4.38192 3.28271C4.52027 3.22575 4.65454 3.19727 4.78475 3.19727C4.94751 3.19727 5.09807 3.23796 5.23641 3.31934C5.37476 3.40072 5.48462 3.4821 5.566 3.56348C5.72876 3.72624 5.88745 3.88493 6.04208 4.03955C6.1967 4.19417 6.35539 4.35287 6.51815 4.51562C6.59953 4.59701 6.68498 4.68246 6.7745 4.77197C6.86402 4.86149 6.94947 4.94694 7.03085 5.02832L8.47128 6.46875C8.74797 6.74544 8.88631 7.01807 8.88631 7.28662C8.88631 7.55518 8.74797 7.8278 8.47128 8.10449C8.3899 8.18587 8.31258 8.26318 8.23934 8.33643C8.1661 8.40967 8.08879 8.48698 8.00741 8.56836C7.79582 8.79622 7.58016 9.01595 7.36044 9.22754C7.14071 9.43913 6.91691 9.64258 6.68905 9.83789C6.68905 9.85417 6.68498 9.8623 6.67684 9.8623C6.6687 9.8623 6.66464 9.8623 6.66464 9.8623C6.43677 10.0902 6.32284 10.3099 6.32284 10.5215C6.32284 10.7331 6.34725 10.9121 6.39608 11.0586C6.39608 11.0749 6.39608 11.0871 6.39608 11.0952C6.39608 11.1034 6.40422 11.1074 6.42049 11.1074C6.59953 11.5632 6.8274 12.0148 7.10409 12.4624C7.38078 12.91 7.71444 13.3861 8.10506 13.8906H8.12948C8.84562 14.7858 9.59432 15.5874 10.3756 16.2954C11.1568 17.0034 11.9706 17.626 12.817 18.1631C12.9146 18.2282 13.0204 18.2892 13.1344 18.3462C13.2483 18.4032 13.3541 18.4561 13.4517 18.5049C13.5494 18.5537 13.643 18.6025 13.7325 18.6514C13.822 18.7002 13.9075 18.749 13.9889 18.7979C13.9889 18.7979 13.997 18.8019 14.0133 18.8101C14.0295 18.8182 14.0377 18.8223 14.0377 18.8223C14.1353 18.8711 14.2249 18.9077 14.3062 18.9321C14.3876 18.9565 14.4771 18.9688 14.5748 18.9688C14.7864 18.9688 14.9613 18.9199 15.0997 18.8223C15.238 18.7246 15.3235 18.6514 15.356 18.6025L17.1627 16.7959C17.2603 16.6982 17.3783 16.6087 17.5167 16.5273C17.655 16.446 17.8056 16.4053 17.9683 16.4053C18.1311 16.4053 18.2776 16.446 18.4078 16.5273C18.538 16.6087 18.6438 16.6901 18.7252 16.7715C18.7252 16.7878 18.7252 16.7959 18.7252 16.7959C18.7252 16.7959 18.7333 16.7959 18.7496 16.7959L21.6549 19.7012C21.9153 19.9779 22.0455 20.2546 22.0455 20.5312C22.0455 20.8079 21.9153 21.0846 21.6549 21.3613ZM13.5006 6.24902C14.2004 6.37923 14.8596 6.60303 15.4781 6.92041C16.0966 7.23779 16.6581 7.64876 17.1627 8.15332C17.651 8.65788 18.0579 9.2194 18.3834 9.83789C18.7089 10.4564 18.9286 11.1074 19.0426 11.791C19.0751 11.9701 19.1565 12.1125 19.2867 12.2183C19.4169 12.3241 19.5715 12.377 19.7506 12.377C19.7668 12.377 19.7831 12.377 19.7994 12.377C19.8157 12.377 19.8401 12.377 19.8726 12.377C20.068 12.3444 20.2226 12.2467 20.3365 12.084C20.4504 11.9212 20.4911 11.7422 20.4586 11.5469C20.3121 10.7168 20.0435 9.92741 19.6529 9.17871C19.2623 8.43001 18.7659 7.75456 18.1637 7.15234C17.5614 6.55013 16.886 6.05371 16.1373 5.66309C15.3886 5.27246 14.5992 5.00391 13.7691 4.85742C13.5738 4.82487 13.3948 4.86556 13.232 4.97949C13.0693 5.09342 12.9716 5.24805 12.939 5.44336C12.9065 5.6224 12.9431 5.79329 13.0489 5.95605C13.1547 6.11881 13.3053 6.21647 13.5006 6.24902ZM24.9752 11.3516C24.8612 10.6517 24.6904 9.97624 24.4625 9.3252C24.2509 8.67415 23.9864 8.04346 23.669 7.43311C23.3516 6.82275 22.9895 6.23275 22.5826 5.66309C22.1594 5.1097 21.7037 4.58073 21.2154 4.07617C20.7109 3.58789 20.1819 3.1403 19.6285 2.7334C19.0588 2.31022 18.4688 1.94401 17.8585 1.63477C17.2481 1.32552 16.6174 1.05697 15.9664 0.829102C15.3154 0.617514 14.648 0.446615 13.9644 0.316406C13.7691 0.283854 13.5901 0.324545 13.4273 0.438477C13.2646 0.552408 13.1669 0.707031 13.1344 0.902344C13.1018 1.09766 13.1425 1.27669 13.2564 1.43945C13.3704 1.60221 13.525 1.69987 13.7203 1.73242C14.9573 1.94401 16.1251 2.33463 17.2237 2.9043C18.3223 3.47396 19.3193 4.20638 20.2144 5.10156C21.1096 5.98047 21.842 6.97331 22.4117 8.08008C22.9814 9.18685 23.3639 10.3506 23.5592 11.5713C23.5917 11.7503 23.6772 11.8927 23.8155 11.9985C23.9539 12.1043 24.1044 12.1572 24.2672 12.1572C24.2997 12.1572 24.3241 12.1572 24.3404 12.1572C24.3567 12.1572 24.373 12.1572 24.3892 12.1572C24.5846 12.1247 24.7392 12.027 24.8531 11.8643C24.967 11.7015 25.0077 11.5306 24.9752 11.3516Z" fill="#01B2D8"/>
</svg>
