<svg width="42" height="42" viewBox="0 0 42 42" fill="none" xmlns="http://www.w3.org/2000/svg">
<rect width="42" height="42" rx="21" fill="#01B2D8"/>
<path d="M31.1719 21C31.1719 15.3809 26.6191 10.8281 21 10.8281C15.3809 10.8281 10.8281 15.3809 10.8281 21C10.8281 26.0769 14.5478 30.2851 19.4106 31.0488V23.9404H16.8267V21H19.4106V18.7589C19.4106 16.2098 20.9282 14.8017 23.2526 14.8017C24.3657 14.8017 25.5298 15.0002 25.5298 15.0002V17.5022H24.2468C22.9835 17.5022 22.5894 18.2864 22.5894 19.0907V21H25.4104L24.9592 23.9404H22.5894V31.0488C27.4522 30.2851 31.1719 26.0769 31.1719 21Z" fill="white"/>
</svg>
