<svg width="42" height="42" viewBox="0 0 42 42" fill="none" xmlns="http://www.w3.org/2000/svg">
<rect width="42" height="42" rx="21" fill="#01B2D8"/>
<path d="M28.875 11.8125H13.1209C12.399 11.8125 11.8125 12.4072 11.8125 13.1373V28.8627C11.8125 29.5928 12.399 30.1875 13.1209 30.1875H28.875C29.5969 30.1875 30.1875 29.5928 30.1875 28.8627V13.1373C30.1875 12.4072 29.5969 11.8125 28.875 11.8125ZM17.366 27.5625H14.6426V18.7934H17.3701V27.5625H17.366ZM16.0043 17.5957C15.1307 17.5957 14.4252 16.8861 14.4252 16.0166C14.4252 15.1471 15.1307 14.4375 16.0043 14.4375C16.8738 14.4375 17.5834 15.1471 17.5834 16.0166C17.5834 16.8902 16.8779 17.5957 16.0043 17.5957ZM27.5748 27.5625H24.8514V23.2969C24.8514 22.2797 24.8309 20.9713 23.4363 20.9713C22.0172 20.9713 21.7998 22.0787 21.7998 23.223V27.5625H19.0764V18.7934H21.6891V19.991H21.726C22.091 19.302 22.9811 18.576 24.3059 18.576C27.0621 18.576 27.5748 20.393 27.5748 22.7555V27.5625Z" fill="white"/>
</svg>
