<svg width="42" height="42" viewBox="0 0 42 42" fill="none" xmlns="http://www.w3.org/2000/svg">
<rect width="42" height="42" rx="21" fill="#01B2D8"/>
<path d="M21.0033 16.2826C18.3947 16.2826 16.2906 18.3867 16.2906 20.9953C16.2906 23.6039 18.3947 25.708 21.0033 25.708C23.6119 25.708 25.716 23.6039 25.716 20.9953C25.716 18.3867 23.6119 16.2826 21.0033 16.2826ZM21.0033 24.0591C19.3175 24.0591 17.9394 22.6851 17.9394 20.9953C17.9394 19.3054 19.3134 17.9314 21.0033 17.9314C22.6931 17.9314 24.0671 19.3054 24.0671 20.9953C24.0671 22.6851 22.689 24.0591 21.0033 24.0591ZM27.008 16.0898C27.008 16.7009 26.5158 17.189 25.9087 17.189C25.2976 17.189 24.8095 16.6968 24.8095 16.0898C24.8095 15.4828 25.3017 14.9906 25.9087 14.9906C26.5158 14.9906 27.008 15.4828 27.008 16.0898ZM30.1292 17.2054C30.0595 15.733 29.7232 14.4287 28.6445 13.3541C27.5699 12.2794 26.2656 11.9431 24.7931 11.8693C23.2755 11.7832 18.7269 11.7832 17.2093 11.8693C15.741 11.939 14.4367 12.2753 13.358 13.35C12.2792 14.4246 11.947 15.7289 11.8732 17.2013C11.7871 18.7189 11.7871 23.2675 11.8732 24.7851C11.9429 26.2576 12.2792 27.5619 13.358 28.6365C14.4367 29.7111 15.7369 30.0474 17.2093 30.1212C18.7269 30.2074 23.2755 30.2074 24.7931 30.1212C26.2656 30.0515 27.5699 29.7152 28.6445 28.6365C29.7191 27.5619 30.0554 26.2576 30.1292 24.7851C30.2154 23.2675 30.2154 18.723 30.1292 17.2054ZM28.1687 26.4134C27.8488 27.2173 27.2294 27.8367 26.4214 28.1607C25.2115 28.6406 22.3404 28.5298 21.0033 28.5298C19.6662 28.5298 16.791 28.6365 15.5851 28.1607C14.7812 27.8408 14.1619 27.2214 13.8378 26.4134C13.358 25.2035 13.4687 22.3324 13.4687 20.9953C13.4687 19.6582 13.3621 16.783 13.8378 15.5771C14.1578 14.7732 14.7771 14.1539 15.5851 13.8298C16.7951 13.35 19.6662 13.4607 21.0033 13.4607C22.3404 13.4607 25.2156 13.3541 26.4214 13.8298C27.2253 14.1498 27.8447 14.7691 28.1687 15.5771C28.6486 16.7871 28.5378 19.6582 28.5378 20.9953C28.5378 22.3324 28.6486 25.2076 28.1687 26.4134Z" fill="white"/>
</svg>
