<svg width="64" height="63" viewBox="0 0 64 63" fill="none" xmlns="http://www.w3.org/2000/svg">
<path opacity="0.08" d="M22.4 6.28571C25.9347 6.28571 28.8 9.09992 28.8 12.5714L28.8 34.028C25.9386 31.8601 22.2913 30.5816 18.1261 29.8999L17.0739 36.1001C21.4919 36.8233 24.3118 38.1945 26.0486 40.0425C27.744 41.8462 28.8 44.5249 28.8 48.7143C28.8 53.0536 25.2183 56.5714 20.8 56.5714C16.3817 56.5714 12.8 53.0536 12.8 48.7143L12.8 47.6121C14.1762 48.0625 15.6043 48.4311 17.0739 48.6715L18.1261 42.4713C15.7488 42.0822 13.3606 41.2167 10.9731 40.1025C8.26102 38.8372 6.4 36.1397 6.4 33C6.4 30.3767 7.06435 28.3124 8.18797 26.7951C9.29411 25.3013 11.0141 24.1067 13.5761 23.4776L16 22.8824L16 12.5714C16 9.09992 18.8654 6.28571 22.4 6.28571ZM32 4.25599C29.6547 1.6461 26.223 0 22.4 0C15.3308 0 9.6 5.62842 9.6 12.5714L9.6 18.1475C6.87664 19.2231 4.64458 20.8932 3.01203 23.0979C0.935648 25.9019 0 29.3376 0 33C0 37.9192 2.54608 42.2296 6.4 44.7612V48.7143C6.4 56.5252 12.8471 62.8571 20.8 62.8571C25.3236 62.8571 29.36 60.8086 32 57.6045C34.64 60.8086 38.6765 62.8571 43.2 62.8571C51.153 62.8571 57.6 56.5252 57.6 48.7143V44.7612C61.4541 42.2296 64 37.9192 64 33C64 29.3376 63.0643 25.9019 60.9878 23.0979C59.3555 20.8932 57.1235 19.2231 54.4 18.1475V12.5714C54.4 5.62842 48.6691 0 41.6 0C37.777 0 34.3453 1.6461 32 4.25599ZM51.2 47.6121V48.7143C51.2 53.0536 47.6182 56.5714 43.2 56.5714C38.7818 56.5714 35.2 53.0536 35.2 48.7143C35.2 44.5249 36.256 41.8462 37.9514 40.0425C39.6883 38.1945 42.5082 36.8233 46.9261 36.1001L45.8739 29.8999C41.7088 30.5816 38.0614 31.8601 35.2 34.028V12.5714C35.2 9.09992 38.0653 6.28571 41.6 6.28571C45.1347 6.28571 48 9.09992 48 12.5714V22.8824L50.424 23.4776C52.9859 24.1067 54.7059 25.3013 55.8122 26.7951C56.9357 28.3124 57.6 30.3767 57.6 33C57.6 36.1397 55.7389 38.8372 53.0269 40.1025C50.6394 41.2167 48.2512 42.0822 45.8739 42.4713L46.9261 48.6715C48.3958 48.4311 49.8237 48.0625 51.2 47.6121Z" fill="white"/>
</svg>
