<svg width="96" height="32" viewBox="0 0 96 32" fill="none" xmlns="http://www.w3.org/2000/svg">
<path d="M1.599 10.0941C1.15673 9.76333 0.530047 9.85371 0.199266 10.296C-0.131515 10.7382 -0.0411353 11.3649 0.401134 11.6957L1.00007 10.8949L1.599 10.0941ZM18.0429 23.9492L17.4102 24.7236L18.0429 23.9492ZM34.6026 30.1531L34.5561 31.152L34.6026 30.1531ZM51.8627 25.7345L51.34 24.882V24.882L51.8627 25.7345ZM57.8083 16.7809L56.8084 16.7635V16.7635L57.8083 16.7809ZM52.8677 9.04938L53.6735 8.45713V8.45713L52.8677 9.04938ZM41.6949 12.3831L40.6949 12.3761L41.6949 12.3831ZM46.4178 19.4963L47.0507 18.7221L46.4178 19.4963ZM64.0579 24.9219L63.8692 23.9399L64.0579 24.9219ZM77.1818 16.0196L76.4475 15.3407L76.4403 15.3485L76.4333 15.3565L77.1818 16.0196ZM95.2295 1.25253C95.2435 0.700418 94.8072 0.241539 94.2551 0.227595L85.258 0.000334558C84.7059 -0.0136125 84.247 0.422655 84.2331 0.974765C84.2191 1.52687 84.6554 1.98575 85.2075 1.9997L93.2049 2.20171L93.0029 10.1992C92.989 10.7513 93.4252 11.2101 93.9773 11.2241C94.5295 11.238 94.9883 10.8018 95.0023 10.2497L95.2295 1.25253ZM1.00007 10.8949L0.401134 11.6957C4.70109 14.9117 13.3402 21.3977 17.4102 24.7236L18.0429 23.9492L18.6757 23.1749C14.5647 19.8154 5.88487 13.2996 1.599 10.0941L1.00007 10.8949ZM18.0429 23.9492L17.4102 24.7236C22.4369 28.8313 28.8819 30.8879 34.5561 31.152L34.6026 30.1531L34.6491 29.1541C29.3445 28.9072 23.3267 26.9756 18.6757 23.1749L18.0429 23.9492ZM34.6026 30.1531L34.5561 31.152C41.7636 31.4875 47.6214 29.5079 52.3854 26.587L51.8627 25.7345L51.34 24.882C46.8741 27.6202 41.4082 29.4688 34.6491 29.1541L34.6026 30.1531ZM51.8627 25.7345L52.3854 26.587C57.8092 23.2615 58.7675 19.131 58.8081 16.7983L57.8083 16.7809L56.8084 16.7635C56.778 18.5107 56.1026 21.9619 51.34 24.882L51.8627 25.7345ZM57.8083 16.7809L58.8081 16.7983C58.8345 15.2838 57.9222 13.8328 56.9559 12.556C56.4536 11.8924 55.8821 11.2097 55.3217 10.5332C54.7546 9.84869 54.1916 9.16202 53.6735 8.45713L52.8677 9.04938L52.062 9.64164C52.6181 10.3983 53.2147 11.1249 53.7816 11.8091C54.3551 12.5015 54.892 13.1431 55.3612 13.7631C56.3378 15.0534 56.8216 16.0066 56.8084 16.7635L57.8083 16.7809ZM52.8677 9.04938L53.6735 8.45713C52.9327 7.44939 51.7679 6.88109 50.6589 6.55489C49.5316 6.22327 48.3274 6.10212 47.3405 6.08355L47.3217 7.08337L47.3029 8.08319C48.176 8.09963 49.1909 8.2078 50.0946 8.4736C51.0166 8.74482 51.6947 9.14202 52.062 9.64164L52.8677 9.04938ZM47.3217 7.08337L47.3405 6.08355C45.2207 6.04365 43.5109 6.79753 42.3522 8.02926L43.0806 8.71445L43.8089 9.39963C44.5507 8.61113 45.7024 8.05307 47.3029 8.08319L47.3217 7.08337ZM43.0806 8.71445L42.3522 8.02926C41.1972 9.2571 40.7055 10.8606 40.6949 12.3761L41.6949 12.3831L42.6949 12.39C42.7026 11.2772 43.0635 10.192 43.8089 9.39963L43.0806 8.71445ZM41.6949 12.3831L40.6949 12.3761C40.684 13.944 41.3308 15.3938 42.2595 16.6849C43.1887 17.9768 44.4484 19.1779 45.7848 20.2705L46.4178 19.4963L47.0507 18.7221C45.7781 17.6816 44.6675 16.6077 43.8831 15.5171C43.0982 14.4258 42.688 13.3855 42.6949 12.39L41.6949 12.3831ZM46.4178 19.4963L45.7848 20.2705C49.1265 23.0027 53.1484 24.515 56.5833 25.2946C59.9865 26.0671 62.9586 26.1514 64.2466 25.9039L64.0579 24.9219L63.8692 23.9399C62.9673 24.1132 60.3034 24.0881 57.026 23.3442C53.7804 22.6076 50.0772 21.1966 47.0507 18.7221L46.4178 19.4963ZM64.0579 24.9219L64.2466 25.9039C69.1744 24.9569 74.0109 21.1068 77.9303 16.6827L77.1818 16.0196L76.4333 15.3565C72.6003 19.683 68.1344 23.1202 63.8692 23.9399L64.0579 24.9219ZM77.1818 16.0196L77.916 16.6985C79.7267 14.7401 81.8573 13.0548 84.0974 11.3405C86.3174 9.64153 88.6554 7.90691 90.7636 5.90252L90.0746 5.17779L89.3856 4.45305C87.374 6.36555 85.1407 8.0236 82.8819 9.75221C80.6431 11.4655 78.3873 13.2426 76.4475 15.3407L77.1818 16.0196ZM90.0746 5.17779L90.7636 5.90252C91.6566 5.05358 92.3948 4.35174 93.0601 3.71924C93.7254 3.08673 94.3177 2.52358 94.9189 1.95201L94.2299 1.22728L93.5408 0.502538C92.9396 1.0741 92.3473 1.63726 91.682 2.26976C91.0167 2.90226 90.2785 3.60411 89.3856 4.45305L90.0746 5.17779Z" fill="#1D4841"/>
</svg>
