<svg width="145" height="31" viewBox="0 0 145 31" fill="none" xmlns="http://www.w3.org/2000/svg">
<path fill-rule="evenodd" clip-rule="evenodd" d="M0.61257 28.9248C1.38736 28.2583 1.78781 30.0413 1.02273 30.5722C1.02365 30.5725 1.0247 30.5738 1.02566 30.5742C0.992194 30.5934 0.708835 30.4591 0.486594 30.2744C0.394097 30.1704 0.21275 30.1144 0.138937 30.0273C0.0600911 29.9429 0.0255461 29.8635 0.0110077 29.8408C-0.0328463 29.7814 0.0681294 29.6679 0.0735077 29.6337C0.0919946 29.5921 0.125458 29.5652 0.169211 29.5488C0.248177 29.5215 0.420658 29.507 0.511984 29.5498C0.72686 29.617 0.980326 29.7056 1.1282 29.456C1.25529 29.2014 0.459087 29.0534 0.61257 28.9248ZM133.657 0.286084C135.472 -0.486288 137.571 0.35903 138.343 2.17476L143.771 14.9335C144.635 16.9662 143.689 19.3147 141.657 20.1796L128.898 25.6084C127.082 26.3808 124.984 25.5345 124.211 23.7187C123.439 21.903 124.284 19.8047 126.1 19.0322L130.639 17.1005C130.626 17.0959 130.612 17.0925 130.599 17.0878C130.445 17.0322 130.641 16.6742 130.632 16.6416C130.559 16.4281 130.08 16.1751 130.03 16.1367C129.754 15.9268 129.577 16.7617 129.458 16.7792C128.221 16.9361 127.228 16.527 126.113 16.2373C125.931 16.1898 126.217 15.764 126.123 15.7402C123.796 15.1726 121.48 14.9137 119.199 14.2119C119.255 13.9458 119.326 13.6547 119.368 13.4033C119.178 13.1771 118.866 14.0449 118.747 14.0576C116.99 14.2362 115.463 13.8038 113.902 13.4101C113.67 13.3533 114.037 12.9737 113.866 12.9033C113.46 12.7408 113.008 12.6736 112.562 12.7216C112.376 12.7439 112.526 13.1619 112.34 13.1914C111.957 13.2521 111.505 13.1798 111.164 13.039C110.999 12.9713 111.245 12.5738 111.139 12.541C109.835 12.1276 108.531 12.0462 107.221 11.6748C107.124 11.6424 107.33 11.2114 107.214 11.1835C105.378 10.7369 103.795 10.7818 101.808 10.6025C100.293 10.4679 98.2963 10.3512 96.7503 9.83296C96.4329 9.72794 96.2439 10.0127 95.9231 9.63179C95.8527 9.54695 95.6068 8.74475 95.2884 9.26265C95.2425 9.33697 95.2985 9.697 95.1253 9.72163C94.2029 9.84523 93.2523 9.76381 92.3528 9.57319C92.2011 9.54219 92.4486 9.11702 92.2805 9.07612C91.8195 8.96866 91.306 8.87599 90.8196 9.04097C90.6474 9.10095 90.7601 9.81747 90.5403 9.45112C90.5192 9.41364 90.6518 9.03506 90.5296 8.99312C90.0837 8.84005 89.6635 9.18156 89.1985 8.84468C89.1242 8.78841 89.0654 7.95792 88.763 8.53804C88.7452 8.57566 88.8501 8.92885 88.6419 8.95698C88.0729 9.0296 87.3568 9.06792 86.7962 8.91304C86.5933 8.85677 86.8356 8.46206 86.7005 8.41499C86.1903 8.24409 85.6553 8.24239 85.1604 8.07319C85.0215 8.0223 85.1436 7.63402 85.1223 7.61226C84.9572 7.48461 84.7051 8.19772 84.6126 8.37007C84.2667 9.01872 83.7338 7.93968 83.679 7.80562C83.3667 7.00938 83.3921 7.90937 83.3206 8.01265C82.9803 8.50602 83.0202 7.76405 82.8821 7.66011C82.414 7.32012 81.8758 7.59317 81.4485 7.59663C81.1877 7.59944 81.3753 8.0092 81.346 8.04097C80.988 8.33058 80.6726 8.45565 80.3216 8.49897C80.175 8.51869 80.2156 8.19367 80.0579 8.17085C79.7039 8.12341 79.3148 8.30213 78.9426 8.2187C78.836 8.19303 78.9705 7.77329 78.844 7.73921C78.2227 7.58136 77.738 8.04008 77.0589 7.69819C76.9893 7.66351 76.6813 6.609 76.386 6.71577C75.7749 6.94212 76.7784 7.35978 75.9866 7.91499C75.0054 8.60533 73.0789 8.35163 71.9671 8.39448C71.6685 8.40492 71.8171 8.07271 71.6155 8.09565C70.6927 8.20318 69.7847 8.53205 68.9036 8.69136C68.4687 8.76975 68.0256 8.80963 67.5637 8.76265C67.2405 8.73019 67.3558 7.80051 67.1096 7.56929C66.8623 7.33868 66.4644 7.54112 66.2796 7.72163C66.0969 7.90218 66.2782 8.45085 66.0989 8.56343C65.5958 8.88288 64.9987 8.7391 64.4895 9.01655C64.3826 9.07465 64.5049 9.41133 64.4856 9.50093C64.3643 10.0721 63.9758 9.41499 63.8968 9.3437C63.4551 8.94503 63.1234 9.29314 62.7893 9.1269C62.5713 9.01911 62.6578 8.76298 62.5657 8.67378C62.081 8.21696 62.3117 9.24559 62.3157 9.41304C62.3354 10.424 61.561 9.10689 61.5286 9.06831C61.0782 8.50953 60.9833 9.34849 60.9104 9.51069C60.6719 10.0261 60.2222 9.84245 59.9866 9.93843C59.7532 10.0332 59.8006 9.60237 59.7815 9.56831C59.4612 9.0785 59.4119 9.9095 59.4085 9.96675C59.3583 10.783 58.6413 10.0137 58.5667 10.0078C57.2629 9.94158 56.5394 10.9256 55.2425 10.8505C55.189 10.8477 54.6607 10.1065 54.6028 10.7324C54.5946 10.836 54.7806 11.1234 54.636 11.2207C54.0473 11.6102 53.32 11.8359 52.6409 11.9785C52.4964 12.0087 52.4887 11.5236 52.3899 11.5498C51.664 11.7334 50.9592 12.128 50.2844 12.3984C50.1395 12.4568 50.055 12.1744 50.0315 12.1718C49.7551 12.1382 49.9858 12.5653 49.7268 12.5439C49.5277 12.5242 48.841 11.3515 48.721 11.3173C48.2104 11.1846 48.1546 11.5396 48.095 12.1914C48.0786 12.3709 48.5234 13.1974 48.054 12.875C48.0358 12.8554 47.9589 12.4939 47.9143 12.4902C47.5796 12.4667 47.4492 12.7196 47.1057 12.7558C46.6718 12.8028 45.8928 12.9378 45.5315 13.1025C44.771 13.4462 44.4978 14.0587 43.5628 13.8222C43.5293 13.8049 43.2065 13.0312 43.0003 13.3173C42.7926 13.6061 42.4282 14.0912 42.0637 14.125C42.0617 14.9244 41.7536 15.151 41.2034 15.0185C40.6534 14.886 40.1217 14.517 39.6585 14.9013C39.6252 14.9283 39.8046 15.3272 39.7913 15.3408C38.9406 15.8617 38.0011 16.1219 36.969 16.1572C36.9255 16.1575 36.8214 15.7815 36.7327 15.7695C36.5685 15.7501 35.9304 16.1066 35.9163 16.2177C35.9118 16.2175 35.5833 15.5388 35.6438 15.9892C35.5438 16.2575 35.9156 16.2123 35.9163 16.2177C35.8954 16.3889 35.69 17.5231 35.1594 17.1523C34.8852 16.9612 34.814 16.5449 34.386 16.6201C33.7254 16.7346 33.1045 17.6429 32.428 18.0126C32.0398 18.226 31.2542 18.3144 30.8684 18.4843C30.0765 18.8335 29.4963 19.3744 28.7132 19.6679C28.6101 19.7069 28.5149 19.2988 28.4798 19.2988C28.0936 19.3048 27.9288 19.7014 27.5647 19.747C27.4278 19.764 27.4402 19.328 27.2464 19.372C26.7033 19.4993 26.3564 20.3905 25.6975 20.2001C25.4085 20.1163 25.2005 19.4216 24.929 19.4501C24.3312 19.513 24.7103 19.9147 24.7278 20.4003C24.7572 21.4398 24.3706 21.474 23.7503 20.6328C23.774 20.5695 23.983 20.579 23.9534 20.4814C23.6738 19.5863 23.3426 19.6706 23.7503 20.6328C23.5562 20.7822 23.228 20.8127 23.6282 21.332C23.6618 21.3756 23.8936 20.9236 23.9182 21.5166C23.928 21.7467 23.8531 22.5898 23.4544 22.3789C23.0551 22.1673 22.5908 21.2088 22.301 21.7099C22.2852 21.7393 22.4459 22.0377 22.4436 22.1113C22.4227 22.667 21.8655 22.2236 21.7092 22.1992C21.1764 22.1197 21.0436 22.4541 20.7639 22.7412C20.6116 22.8985 21.1911 23.477 20.7161 23.2431C20.6393 23.2048 19.8616 22.4445 19.8333 22.456C19.2798 22.6697 20.0748 24.423 19.3792 24.1259C19.2168 24.0548 19.0231 23.2056 18.7796 23.6679C18.7161 23.792 18.8375 24.0183 18.7112 24.1142C18.3497 24.3882 17.661 24.3628 17.8489 25.3427C17.4177 25.4207 16.8138 25.1863 16.4163 25.2714C15.9077 25.3818 15.6643 25.8642 15.1819 26.0273C15.0683 26.065 14.9647 25.6106 14.8635 25.6542C14.0546 26.0207 13.4144 26.6524 12.635 27.0869C12.2269 26.3463 11.8018 25.5938 11.4036 24.8535C11.1997 25.3345 11.8257 25.8963 11.928 26.4257C12.0302 26.9521 11.4824 26.4524 11.4651 26.9394C11.4526 27.112 11.516 27.7574 11.3831 27.9013C11.1618 28.1403 10.7954 28.1244 10.5081 28.1357C10.2197 28.1481 10.2066 28.4453 9.90944 28.4033C9.86261 28.3935 9.71428 28.1109 9.65944 28.0673C9.22303 27.7282 9.25585 28.6087 9.25417 28.6757C9.21312 29.685 8.81936 28.6396 8.57155 28.4736C7.43639 27.6863 7.84579 29.0743 7.28542 29.4931C7.11714 29.6182 6.61149 28.7384 6.31081 28.7265C5.83679 28.714 5.54099 29.1233 4.96902 29.0585C4.85056 29.0394 3.97674 28.3262 4.22292 29.2392C4.24805 29.3226 4.94567 30.7078 4.41726 30.4755C4.34803 30.4466 3.6014 29.75 3.5237 29.7275C3.17061 29.6528 3.08787 30.0696 2.86355 30.0214C2.63917 29.9723 2.18101 29.039 2.20241 28.9863C2.49362 28.3222 3.65937 30.4258 2.84499 28.3691C3.44282 29.0072 3.57636 28.4162 4.01394 28.2988C4.0454 28.2965 4.12439 28.7342 4.30788 28.6289C4.7276 28.3813 5.30053 28.1267 5.64773 27.6718C5.79309 27.4641 5.42681 27.3976 5.50905 27.1406C5.59332 26.8824 5.89598 27.1894 5.90456 26.6455C5.90529 26.5022 5.92825 25.6767 6.3782 25.9687C6.43074 26.0034 6.5817 26.282 6.63503 26.3037C6.86207 26.3888 6.84346 26.0943 7.05593 26.1699C7.10679 26.1874 7.18781 26.5136 7.27859 26.5195C7.74992 26.5475 7.95004 26.4201 8.3987 27.2392C8.64664 26.9827 8.43746 26.0209 8.59304 25.746C8.7773 25.3968 9.13845 25.7309 9.34792 25.5996C9.55845 25.467 9.33128 25.1891 9.51003 25.0771C9.9852 24.7779 10.5923 24.7892 11.0413 24.4423C11.1509 24.3599 11.0888 24.0104 11.2522 23.9082C11.3632 23.841 11.8505 24.4074 11.9104 24.4023C13.2219 24.268 13.9125 23.1432 15.1409 22.9052C15.0939 21.4184 16.6534 23.5575 17.055 23.5791C18.0543 23.633 16.7905 21.9631 16.9094 21.3535C17.0145 20.799 17.7236 21.0903 17.8704 20.9853C18.6822 20.4114 19.0868 19.8023 20.0042 19.6259C20.0299 19.6318 20.1313 20.0376 20.2522 19.9834C20.5073 19.867 20.7945 19.5755 21.0335 19.4433C21.1836 19.3609 21.5774 19.909 21.6048 19.9238C22.2921 20.1521 22.4188 19.4965 22.2864 18.7607C22.1539 18.0246 22.5926 18.7583 22.5598 18.3017C22.5489 18.1587 22.4144 17.9556 22.4153 17.875C22.4288 17.28 23.014 17.7628 23.1712 17.7939C23.8232 17.9228 24.2762 17.2204 24.6155 17.0341C24.9493 16.8502 24.5517 16.6133 24.5432 16.5673C24.4885 15.92 24.8751 16.6583 24.9134 16.6728C25.9086 16.8847 26.2877 16.0403 27.1907 15.9804C27.2766 15.9797 27.7476 16.657 27.7229 16.0195C27.7209 15.9777 27.5076 15.6882 27.6028 15.6035C27.8795 15.3561 28.2627 15.2407 28.5852 15.0634C29.1137 15.7453 29.7059 15.7919 29.2161 14.6826C29.6992 14.3921 30.3291 13.6223 30.8167 13.4951C31.4368 13.3338 31.7885 14.0071 32.2649 13.6386C32.3367 13.5806 32.1105 13.2492 32.1282 13.2246C32.5538 12.6985 32.6513 13.5359 33.0628 14.1494C33.188 14.3362 33.2897 13.9459 33.3899 14.0126C33.723 14.2347 33.8475 14.6929 34.1653 14.5585C34.6954 14.3351 34.6589 13.6376 34.1682 12.6728C34.8565 13.2687 34.8774 14.0453 35.4739 13.5078C35.5305 13.4556 35.2684 13.0972 35.3704 13.0166C36.1142 12.4337 36.9945 12.0667 37.7337 11.4609C37.826 11.383 37.5976 11.0571 37.6184 11.0302C38.0127 10.6003 38.0512 11.3774 38.4407 11.9824C38.6253 12.2676 39.3269 12.6048 39.4866 12.4746C39.6459 12.344 39.4011 12.2054 39.4173 12.0126C39.434 11.8202 39.6184 12.0995 39.5696 11.7792C39.5221 11.4574 38.7811 10.1551 39.3284 10.2431C39.8745 10.3327 39.8193 10.9947 40.469 10.538C40.8292 10.2859 41.0702 10.2569 41.7346 9.94624C42.3985 9.63407 43.7995 8.46607 44.8255 8.64351C45.0961 8.69057 45.1338 9.53264 45.3176 9.7978C45.6186 9.70204 45.2319 9.31971 45.2268 8.97456C45.222 8.62712 45.5701 9.12558 45.5608 8.6064C45.5579 8.4637 45.5075 7.79023 45.8938 8.19722C45.9184 8.22715 45.9427 8.57081 46.1087 8.5644C46.4533 8.54969 46.589 8.34063 46.8147 9.17769C47.0069 8.71437 46.3011 7.75264 46.805 7.77534C46.8271 7.7788 46.873 8.20839 47.0081 8.18355C48.7381 7.85754 50.1284 6.71342 51.8821 6.25972C51.9166 6.24913 52.3614 6.32486 52.5032 6.44722C52.5269 6.46884 52.5265 6.88902 52.7317 6.84273C52.9375 6.79551 53.4734 6.66078 53.6516 6.49507C53.831 6.3288 53.5422 6.08438 53.6341 5.98237C53.842 5.75385 53.7547 6.33129 53.9749 6.35444C54.271 6.38562 54.7098 6.19498 54.9358 6.02339C55.0864 5.90842 54.9094 5.61992 54.9221 5.5312C55.0165 4.91555 55.5793 5.57609 55.6682 5.61714C56.2127 5.86218 56.3536 5.40901 56.7766 5.41401C56.8826 5.41759 56.8614 5.72517 56.9651 5.66499C57.3446 5.44131 57.4153 4.08978 58.0266 4.62398C58.2842 4.85124 58.2684 6.28753 58.7376 5.63862C58.8082 5.53961 58.6301 5.33383 58.6985 5.17183C58.7668 5.00957 59.0866 4.51789 59.2425 4.68355C59.3981 4.85066 59.6953 6.57806 59.8137 5.80073C59.9352 5.02035 59.6765 4.86284 60.136 4.25679C60.1432 4.23171 59.9276 3.89927 60.1214 3.78218C60.3176 3.663 61.0743 3.53047 61.2395 3.47554C61.6543 3.33858 61.7919 4.49759 61.8596 4.56636C62.3864 5.05939 62.2984 4.05777 62.5208 3.70991C62.6183 3.56018 62.7641 3.68611 62.8704 3.5478C62.904 3.5035 62.7764 3.14438 62.7893 3.13472C63.2753 3.05027 63.5659 5.09127 63.8499 4.64351C63.8831 4.5848 63.6485 3.99396 63.7327 3.71675C63.7556 3.63888 63.9994 2.6274 64.1634 2.80366C64.8083 3.50784 64.755 4.17323 65.4915 3.8271C65.5523 3.7983 65.4359 3.39303 65.4661 3.3769C66.3732 2.90731 67.3242 2.65421 68.2688 2.50386C69.8914 2.24601 71.564 2.28161 73.2161 2.00093C73.6807 2.99706 74.22 2.2684 74.844 2.48823C74.9234 2.51965 75.0936 3.36594 75.3303 2.72847C75.3442 2.68647 75.17 2.36034 75.4094 2.30366C76.9629 1.93495 78.6164 1.83664 80.1702 2.01167C80.403 2.03759 80.2012 2.47043 80.2835 2.48921C80.9686 2.63879 81.4689 1.77559 82.1819 2.06733C82.2395 2.09383 82.3833 2.94197 82.6341 2.3603C82.6502 2.32309 82.6266 1.97443 82.7053 1.94429C83.0811 1.80004 83.1217 2.56825 83.5139 2.40425C83.6027 2.36531 83.4616 1.95198 83.6458 1.91499C84.4762 1.75534 85.3519 1.7762 86.176 1.91108C86.335 1.93872 86.1003 2.39746 86.2669 2.40815C86.9846 2.45571 87.532 2.68612 88.345 2.29878C88.4519 2.24453 88.9979 1.44304 89.2259 1.98335C89.2526 2.05005 89.1861 2.39846 89.2981 2.45308C89.8513 2.71418 90.4995 2.65525 91.0637 2.86421C91.1962 2.91476 91.0339 3.29281 91.1204 3.34565C91.5033 3.58253 91.234 3.09769 91.5911 2.90327C92.1454 2.60141 92.8521 2.61371 93.4348 2.61616C93.7128 4.4663 95.1428 3.82989 96.0344 3.61226C96.1795 3.57458 96.0603 3.13987 96.2024 3.1269C97.6224 3.00502 99.0073 3.16257 100.376 3.43843C100.505 3.46512 100.306 3.90931 100.411 3.93062C101.414 4.13054 102.316 4.06208 103.358 4.21577C104.234 4.34658 105.169 4.67647 106.08 4.84858C107.285 5.07466 108.449 4.8102 109.663 5.41694C109.73 5.45229 110.102 6.38765 110.451 5.83687C110.493 5.77077 110.491 5.45022 110.666 5.3896C110.844 5.32953 111.309 5.38966 111.477 5.49409C111.641 5.59805 111.412 5.95992 111.52 6.00288C112.024 6.19833 112.639 6.13029 113.12 6.22358C113.472 6.29447 113.533 6.31148 113.914 6.33101C114.116 6.34297 114.581 6.51669 114.851 6.48042C114.97 6.46413 114.953 6.06336 114.987 6.03901C115.481 5.72768 114.92 6.35153 115.308 6.50093C116.21 6.84685 117.319 7.06445 118.379 6.91108C118.645 6.87092 118.692 6.11939 118.958 6.65913C118.973 6.69681 118.817 7.03562 118.937 7.08394C120.003 7.50531 121.317 7.42998 122.411 7.63569C125.628 8.23306 128.757 8.89304 131.96 9.33101C132.628 9.42958 133.126 9.66549 133.775 9.69233L131.767 4.97261C130.994 3.15677 131.841 1.05861 133.657 0.286084ZM7.00515 27.749C6.98338 27.356 6.48616 27.2467 6.5071 27.5605C6.53255 27.9519 7.02127 28.0651 7.00515 27.749ZM10.5921 27.3144C11.1878 27.4845 10.149 25.6372 10.0159 26.2929C10.0097 26.3335 10.5578 27.305 10.5921 27.3144ZM14.2249 25.5917C14.2192 25.0238 13.5621 24.2691 13.5452 25.0166C13.5411 25.2439 14.2311 26.1567 14.2249 25.5917ZM28.5862 15.0625C28.5228 14.4365 28.81 14.3728 29.22 14.7158C29.0106 14.8379 28.792 14.9384 28.5862 15.0625ZM44.2024 12.707C44.5978 12.9469 44.0656 11.5511 43.9436 12.0253C43.9371 12.0487 44.1788 12.6826 44.2024 12.707ZM43.7073 10.1845C43.693 10.1696 43.4942 10.2586 43.4944 10.2792C43.5703 10.7758 43.9764 10.5927 43.7073 10.1845ZM57.302 6.42183C57.2757 6.29946 57.1282 6.35391 57.1272 6.3769C57.1468 6.75757 57.3866 6.81757 57.302 6.42183ZM66.6585 3.58394C66.635 3.54781 66.1273 3.65429 66.1194 3.69819C66.0029 4.53602 67.0236 4.31864 66.6585 3.58394Z" fill="#2D96BC"/>
</svg>
