<svg width="101" height="101" viewBox="0 0 101 101" fill="none" xmlns="http://www.w3.org/2000/svg">
<circle cx="50.5" cy="50.5" r="50" fill="#FF7A59" stroke="#E1E1E1"/>
<path d="M60.0849 40.7696V35.0777C60.8371 34.7262 61.4739 34.1682 61.9213 33.4688C62.3688 32.7693 62.6083 31.9572 62.6121 31.1269V30.9963C62.6121 28.5755 60.6497 26.6131 58.2291 26.6131H58.0983C55.6775 26.6131 53.7151 28.5755 53.7151 30.9963V31.1269C53.7189 31.9572 53.9585 32.7693 54.4059 33.4688C54.8533 34.1682 55.4902 34.7262 56.2424 35.0777V40.7696C54.0805 41.1007 52.0446 41.9971 50.3406 43.3681L34.7302 31.2091C34.8415 30.8073 34.8996 30.3941 34.9061 29.9793C34.908 29.0025 34.6202 28.047 34.079 27.2337C33.5378 26.4205 32.7675 25.786 31.8657 25.4106C30.9639 25.0351 29.9709 24.9356 29.0125 25.1245C28.0541 25.3135 27.1733 25.7824 26.4814 26.472C25.7895 27.1617 25.3177 28.041 25.1257 28.9988C24.9336 29.9566 25.03 30.9499 25.4025 31.8529C25.775 32.756 26.407 33.5283 27.2184 34.0721C28.0299 34.6159 28.9845 34.9069 29.9613 34.9081C30.8159 34.9041 31.6545 34.676 32.3933 34.2465L47.7651 46.2081C44.939 50.4774 45.0146 56.0414 47.9555 60.2325L43.2802 64.9092C42.9021 64.7884 42.5086 64.7242 42.1118 64.7188C39.8727 64.7207 38.0588 66.5366 38.0594 68.7756C38.0599 71.0145 39.875 72.8294 42.1139 72.83C44.3529 72.8306 46.1688 71.0167 46.1707 68.7776C46.1654 68.3809 46.1012 67.9871 45.9801 67.6093L50.6052 62.9824C54.7379 66.1639 60.4138 66.438 64.8338 63.6696C69.2537 60.9009 71.4843 55.6743 70.4252 50.5676C69.3662 45.4608 65.2413 41.5525 60.0849 40.7696ZM58.1678 59.49C57.3133 59.513 56.4629 59.3646 55.6667 59.0535C54.8706 58.7423 54.1448 58.2749 53.5324 57.6786C52.9199 57.0824 52.433 56.3695 52.1006 55.582C51.7682 54.7945 51.5969 53.9484 51.5969 53.0936C51.5969 52.2388 51.7682 51.3927 52.1006 50.6052C52.433 49.8177 52.9199 49.1048 53.5324 48.5085C54.1448 47.9123 54.8706 47.4448 55.6667 47.1337C56.4629 46.8226 57.3133 46.6741 58.1678 46.6971C61.6111 46.8177 64.3408 49.6432 64.3427 53.0889C64.3442 56.5343 61.6175 59.3627 58.1741 59.4867" fill="white"/>
</svg>
