<svg width="101" height="101" viewBox="0 0 101 101" fill="none" xmlns="http://www.w3.org/2000/svg">
<circle cx="50.5" cy="50.5" r="50" fill="#21844A" stroke="#E1E1E1"/>
<path fill-rule="evenodd" clip-rule="evenodd" d="M45.7022 45.502C45.7022 49.3809 47.6607 53.545 51.9959 53.545C55.2093 53.545 58.4417 51.0352 58.4417 45.445C58.4417 40.5393 55.8938 37.2308 52.11 37.2308C48.9917 37.2308 45.7022 39.3985 45.7022 45.502ZM53.6121 30.0625C61.3509 30.0625 66.5607 36.2041 66.5607 45.3309C66.5607 54.3246 61.0657 60.5993 53.2318 60.5993C49.486 60.5993 47.0902 59.0021 45.8353 57.8422C45.8353 58.1084 45.8543 58.4317 45.8543 58.7549V70.943H37.8303V38.4668C37.8303 37.9914 37.6782 37.8393 37.2029 37.8393H34.4648V30.728H41.1959C44.2952 30.728 45.0938 32.3062 45.2459 33.5231C46.5008 32.116 49.1057 30.0625 53.6121 30.0625Z" fill="white"/>
</svg>
